<?xml version="1.0" encoding="UTF-8"?>
<svg width="112px" height="113px" viewBox="0 0 112 113" version="1.1" xmlns="http://www.w3.org/2000/svg" xmlns:xlink="http://www.w3.org/1999/xlink">
    <!-- Generator: Sketch 52.6 (67491) - http://www.bohemiancoding.com/sketch -->
    <title>python</title>
    <desc>Created with Sketch.</desc>
    <defs>
        <linearGradient x1="-3.97947646e-07%" y1="-3.58079536e-07%" x2="74.5209926%" y2="64.1103732%" id="linearGradient-1">
            <stop stop-color="#5A9FD4" offset="0%"></stop>
            <stop stop-color="#306998" offset="100%"></stop>
        </linearGradient>
        <linearGradient x1="49.9999992%" y1="82.2756067%" x2="23.442656%" y2="44.9144289%" id="linearGradient-2">
            <stop stop-color="#FFD43B" offset="0%"></stop>
            <stop stop-color="#FFE873" offset="100%"></stop>
        </linearGradient>
    </defs>
    <g id="Page-1" stroke="none" stroke-width="1" fill="none" fill-rule="evenodd">
        <g id="python" fill-rule="nonzero">
            <path d="M54.918785,0.00091927389 C50.335132,0.02221727 45.957846,0.41313697 42.106285,1.0946693 C30.760069,3.0991731 28.700036,7.2947714 28.700035,15.032169 L28.700035,25.250919 L55.512535,25.250919 L55.512535,28.657169 L28.700035,28.657169 L18.637535,28.657169 C10.845076,28.657169 4.0217762,33.340886 1.8875352,42.250919 C-0.57428478,52.463885 -0.68347988,58.836942 1.8875352,69.500919 C3.7934635,77.438771 8.3450784,83.094667 16.137535,83.094669 L25.356285,83.094669 L25.356285,70.844669 C25.356285,61.994767 33.013429,54.188421 42.106285,54.188419 L68.887535,54.188419 C76.342486,54.188419 82.293788,48.050255 82.293785,40.563419 L82.293785,15.032169 C82.293785,7.7658304 76.163805,2.3073919 68.887535,1.0946693 C64.281548,0.32794397 59.502438,-0.02037903 54.918785,0.00091927389 Z M40.418785,8.2196694 C43.188332,8.2196694 45.450035,10.518315 45.450035,13.344669 C45.450033,16.161005 43.188332,18.438419 40.418785,18.438419 C37.639309,18.438418 35.387535,16.161004 35.387535,13.344669 C35.387534,10.518316 37.639309,8.2196694 40.418785,8.2196694 Z" id="path1948" fill="url(#linearGradient-1)"></path>
            <path d="M85.637535,28.657169 L85.637535,40.563419 C85.637535,49.794174 77.81164,57.563418 68.887535,57.563419 L42.106285,57.563419 C34.770452,57.563419 28.700036,63.841902 28.700035,71.188419 L28.700035,96.719666 C28.700035,103.98601 35.018623,108.25999 42.106285,110.34467 C50.593616,112.84028 58.732522,113.2913 68.887535,110.34467 C75.63769,108.39028 82.293788,104.45706 82.293785,96.719666 L82.293785,86.500919 L55.512535,86.500919 L55.512535,83.094669 L82.293785,83.094669 L95.700039,83.094669 C103.4925,83.094669 106.39629,77.659261 109.10628,69.500919 C111.90561,61.102033 111.7865,53.025143 109.10628,42.250919 C107.1805,34.493478 103.50241,28.657169 95.700039,28.657169 L85.637535,28.657169 Z M70.575035,93.313419 C73.354513,93.313422 75.606285,95.590836 75.606285,98.407166 C75.606283,101.23352 73.35451,103.53217 70.575035,103.53217 C67.805485,103.53217 65.543785,101.23352 65.543785,98.407166 C65.543787,95.590836 67.805482,93.313419 70.575035,93.313419 Z" id="path1950" fill="url(#linearGradient-2)"></path>
        </g>
    </g>
</svg>