<?xml version="1.0" encoding="utf-8"?>
<!-- Generator: Adobe Illustrator 26.0.3, SVG Export Plug-In . SVG Version: 6.00 Build 0)  -->
<svg version="1.0" id="katman_1" xmlns="http://www.w3.org/2000/svg" xmlns:xlink="http://www.w3.org/1999/xlink" x="0px" y="0px"
	 viewBox="0 0 1386.7 897.7" style="enable-background:new 0 0 1386.7 897.7;" xml:space="preserve">
<style type="text/css">
	.st0{clip-path:url(#SVGID_00000031181152868452809900000003830553989629588411_);}
	.st1{fill:#F9423A;}
</style>
<g>
	<defs>
		<rect id="SVGID_1_" x="73.3" y="329.4" width="1240" height="238.6"/>
	</defs>
	<clipPath id="SVGID_00000137831187188224381820000001543241129973660322_">
		<use xlink:href="#SVGID_1_"  style="overflow:visible;"/>
	</clipPath>
	<g style="clip-path:url(#SVGID_00000137831187188224381820000001543241129973660322_);">
		<path class="st1" d="M141.1,381.9l62.6,155.3h35.9l-62.6-155.3H141.1z"/>
		<path class="st1" d="M128.5,460.4h-26.9v24.9H76.7v26.9h24.9v24.9h26.9v-24.9h24.9v-26.9h-24.9V460.4z"/>
		<path class="st1" d="M331.9,444.1c-24.9-6.2-32.4-11-32.4-20.3c0-8.7,9.2-15.1,21.2-15.1c19.9,0,38.4,12.8,38.4,12.8l16-24.6
			c-15.9-11.5-35-17.7-54.6-17.6c-32.9,0-55.3,19.2-55.3,47.9c0,23.3,15.8,37.2,49.1,45.5c24.9,6.2,32.4,10.9,32.4,20.5
			c0,10.8-9.6,17.1-25.3,17.1c-23.7,0-43.2-18.3-43.2-18.3l-18.7,24c16.8,14.9,38.4,23.3,60.8,23.6c38.1,0,60.7-18,60.7-48.7
			C381,466.1,366.8,452.7,331.9,444.1z"/>
		<path class="st1" d="M481.2,444.1c-24.9-6.2-32.4-11-32.4-20.3c0-8.7,9.3-15.1,21.2-15.1c19.9,0,38.4,12.8,38.4,12.8l16-24.5
			c-15.8-11.6-35-17.8-54.6-17.7c-32.9,0-55.3,19.2-55.3,47.9c0,23.3,15.8,37.2,49.1,45.5c24.9,6.2,32.4,10.9,32.4,20.5
			c0,10.8-9.6,17.1-25.3,17.1c-23.8,0-43.2-18.3-43.2-18.3l-18.7,24c16.8,14.9,38.3,23.3,60.7,23.6c38.1,0,60.7-18,60.7-48.7
			C530.2,466.1,516.1,452.7,481.2,444.1z"/>
		<path class="st1" d="M570.2,537.2h104.4v-29h-70.8v-34.9h59.6v-28.8h-59.6v-33.6h70.8v-29H570.2V537.2z"/>
		<path class="st1" d="M1006.1,456.8v-0.3c5.8-3.3,10.5-8.1,13.7-13.9c3.2-5.8,4.8-12.4,4.5-19c0-26-18-41.6-48.4-41.6h-64.8v155.2
			h61.4c35.6,0,54.4-15.4,54.6-45C1027.1,475.3,1020,463.4,1006.1,456.8z M944.7,409.1H970c13.7,0,20.8,6.2,20.8,18s-7.1,18-20.8,18
			h-25.3V409.1z M972.4,510h-27.8v-38.8h27.8c13.5,0,20.8,6.6,21,19.4c0.2,12.8-7.6,19.4-21.1,19.4H972.4z"/>
		<path class="st1" d="M791.7,469.4h-1.6l-39.5-87.5h-32.4v155.3H749V446h0.7l29.7,66.2h23.1l29.7-66.2h0.7v91.1h30.8V381.9h-32.4
			L791.7,469.4z"/>
		<path class="st1" d="M1275.4,381.9l-32.2,59.4h-0.7l-32.2-59.4h-35.7l50.9,93v62.3h33.6v-62.3l50.9-93H1275.4z"/>
		<path class="st1" d="M1104.3,381.9h-33.5v155.3h105.7v-29.9h-72.2V381.9z"/>
	</g>
</g>
</svg>
